<svg xmlns="http://www.w3.org/2000/svg" viewBox="0 0 592.47 88.1"><title>Wolfram Alpha</title><path d="M164.88 15.18h-8.48L146 60l-10.55-44.45-.09-.37H126l-10.48 44.47-10.28-44.47h-8.6l13.66 57.68.09.37h9.73l10.44-44.08 10.31 43.71.09.37h9.89l13.89-57.45.14-.6m18.72 12.58a18.31 18.31 0 0 0-14.6 5.86c-3.35 3.87-5.05 9.79-5.05 17.6s1.69 13.53 5 17.41a18.26 18.26 0 0 0 14.58 5.88 18 18 0 0 0 14.52-5.94c3.3-3.92 5-9.76 5-17.35s-1.66-13.55-4.94-17.49a17.94 17.94 0 0 0-14.54-6zm8.4 35.76a11.27 11.27 0 0 1-15.77 1.15 11.12 11.12 0 0 1-1.23-1.19 22.16 22.16 0 0 1-2.71-12.27c0-5.73.94-9.94 2.8-12.52a9.79 9.79 0 0 1 8.49-3.82 9.57 9.57 0 0 1 8.35 3.81c1.87 2.57 2.82 6.79 2.82 12.54 0 5.56-.94 9.7-2.79 12.3zm19.16-52.67h8.07v62.38h-8.07zm42.93.37a21.49 21.49 0 0 0-8.58-1.65c-5.09 0-8.71 1.3-10.77 3.88a18.89 18.89 0 0 0-3.06 11.83V29h-6.38v6.9h6.36v37.33h8.07V35.9h9.63V29h-9.63v-3.72a12.45 12.45 0 0 1 1.3-6.91 5.53 5.53 0 0 1 4.62-1.65 13.26 13.26 0 0 1 3.14.44 13.76 13.76 0 0 1 2.91 1l.51.27 2.25-7.07zm22 17.12a12.84 12.84 0 0 0-7.57 2.42 47.55 47.55 0 0 0-5.5 4.58V29h-8.07v44.23H263V43a27.56 27.56 0 0 1 6.61-5.15 13.24 13.24 0 0 1 5.92-1.41 8.26 8.26 0 0 1 3.11.45l.53.23 1.74-7.73-.32-.17a9.6 9.6 0 0 0-4.53-.92zm37.75 2.92c-2.78-2.32-7.38-3.49-13.7-3.49a24.23 24.23 0 0 0-10.31 2 13.53 13.53 0 0 0-6.27 5.71l-.23.4 6.64 4 .25-.43a9.78 9.78 0 0 1 3.25-3.14 12.11 12.11 0 0 1 6.49-1.45 13.63 13.63 0 0 1 7.44 1.74 7.11 7.11 0 0 1 2.57 6.4v1.66l-10.23.91a29.8 29.8 0 0 0-9.81 2.5 12.83 12.83 0 0 0-5.28 4.84 14.81 14.81 0 0 0-1.83 7.65 14.51 14.51 0 0 0 3.49 10 12.67 12.67 0 0 0 9.93 3.93 15.63 15.63 0 0 0 7.8-2 40.48 40.48 0 0 0 5.93-4.16v4.84H318V43.34c0-5.68-1.42-9.74-4.22-12.08zm-15.45 35.93a8.25 8.25 0 0 1-5.51-1.57 6.62 6.62 0 0 1-1.78-5.2 6.71 6.71 0 0 1 2.7-5.82 20.22 20.22 0 0 1 9.72-2.65l6.41-.61v9.8l-2.6 2.06a23.83 23.83 0 0 1-2.9 2 20.87 20.87 0 0 1-3 1.45 8.44 8.44 0 0 1-3 .57zm85.13-32.61a10.06 10.06 0 0 0-3.69-5.06 11.44 11.44 0 0 0-6.64-1.75 13.94 13.94 0 0 0-8.09 2.52 44 44 0 0 0-6.35 5.44 10.22 10.22 0 0 0-3.47-5.83 11.69 11.69 0 0 0-7.28-2.14 13.72 13.72 0 0 0-7.71 2.39 35.07 35.07 0 0 0-5.53 4.56V29h-8.07v44.23h8.07V42.39a33.38 33.38 0 0 1 6.29-5 10.63 10.63 0 0 1 5.16-1.77 5.87 5.87 0 0 1 3.43.79 4.58 4.58 0 0 1 1.51 2.75 44 44 0 0 1 .48 8.14v26h8.07V42.4a40.63 40.63 0 0 1 6.79-5.4 9.58 9.58 0 0 1 4.6-1.46 6.6 6.6 0 0 1 3.49.73 4.05 4.05 0 0 1 1.53 2.57 45.38 45.38 0 0 1 .48 8.38v26h8.07V43.87a29.37 29.37 0 0 0-1.14-9.3z" style="fill:#d10"/><path d="M420.39 14.25h-10.6l-19.87 58h8.83l4.88-14.85h22.6l5 14.85h9.08l-19.8-57.67zm3.12 35.31h-17.25l8.63-25.79zm22.14-39.64h8.07V72.3h-8.07zm38 16.91a17.64 17.64 0 0 0-7.56 1.65 22.75 22.75 0 0 0-5.18 3.3v-3.71h-8.07v60h8.07V69.3a18.48 18.48 0 0 0 11.62 4.28 15.55 15.55 0 0 0 13.18-6.48 28.47 28.47 0 0 0 4.74-17.22c0-7.33-1.48-13.05-4.39-17a14.6 14.6 0 0 0-12.41-6zm8.5 23.17c0 5.62-1 9.78-3 12.37a9 9 0 0 1-7.55 3.85 16.82 16.82 0 0 1-10.67-4.4V39.4a24.73 24.73 0 0 1 5.12-3.66 13 13 0 0 1 6.26-1.64c6.62 0 9.84 5.21 9.84 15.94zm37.95-23.17a16.44 16.44 0 0 0-8.3 2.4 35.5 35.5 0 0 0-6.3 4.62V9.92h-8.07V72.3h8.07V41.48a42 42 0 0 1 6.78-4.83 13 13 0 0 1 6.12-2 7 7 0 0 1 3.86.87 4.77 4.77 0 0 1 1.81 2.73 35.63 35.63 0 0 1 .58 8.09v26h8.07V42.95c0-5.75-1-9.91-3-12.37a11.75 11.75 0 0 0-9.59-3.74zm50.68 3.49c-2.78-2.32-7.38-3.49-13.7-3.49a24.23 24.23 0 0 0-10.31 2 13.53 13.53 0 0 0-6.27 5.71l-.22.4 6.64 4 .25-.43a9.78 9.78 0 0 1 3.25-3.14 12.11 12.11 0 0 1 6.49-1.45 13.63 13.63 0 0 1 7.44 1.74 7.11 7.11 0 0 1 2.57 6.4v1.66l-10.23.91a29.8 29.8 0 0 0-9.81 2.5 12.83 12.83 0 0 0-5.27 4.87 14.81 14.81 0 0 0-1.83 7.65 14.51 14.51 0 0 0 3.49 10 12.67 12.67 0 0 0 9.93 3.93 15.63 15.63 0 0 0 7.8-2 40.48 40.48 0 0 0 5.93-4.16v4.84H585V42.41c0-5.68-1.42-9.74-4.22-12.08zm-15.39 35.94a8.25 8.25 0 0 1-5.5-1.57 6.62 6.62 0 0 1-1.78-5.2 6.71 6.71 0 0 1 2.7-5.82 20.22 20.22 0 0 1 9.71-2.67l6.41-.61v9.8l-2.6 2.06a23.83 23.83 0 0 1-2.9 2 20.87 20.87 0 0 1-3 1.45 8.44 8.44 0 0 1-3.04.56z" style="fill:#ff7d00"/><path d="M84.7 57.21l-18 3.85 1.83 18-16.88-7.28-9.3 15.62L33 71.78 16.17 79 18 61 0 57.2l12.26-13.5L0 30.19l18-3.85-1.83-18 16.88 7.27L42.35 0l9.3 15.62 16.87-7.27-1.83 18 18 3.85-12.26 13.5L84.7 57.21" style="fill:#f16850"/><path d="M42.35 27.28l-9.3-11.66-16.87-7.28 10 13.31 16.12 5.63" style="fill:#fd694f"/><path d="M18 26.34L0 30.19l12.26 13.5 14.44-5.25-8.7-12.1" style="fill:#ff3413"/><path d="M26.23 21.65l-10-13.31 1.83 18 8.68 12.1-.47-16.78" style="fill:#dc1d23"/><path d="M51.65 15.62L42.35 0l-9.3 15.62 9.29 11.66 9.3-11.66" style="fill:#ff9281"/><path d="M72.43 43.7L84.7 30.2l-18-3.85L58 38.44l14.43 5.26" style="fill:#ff8b79"/><path d="M58 38.44l8.69-12.09 1.83-18-10 13.3L58 38.44" style="fill:#fd694f"/><path d="M58.47 21.65l10.05-13.3-16.87 7.26-9.3 11.66 16.12-5.63" style="fill:#ef5240"/><path d="M68.43 51.75L84.7 57.2 72.43 43.7 58 38.43l10.43 13.31" style="fill:#ff482c"/><path d="M26.7 38.44l-14.44 5.25L0 57.19l16.26-5.45 10.44-13.3" style="fill:#ec2101"/><path d="M42.35 70.35v17l9.29-15.62L52 56.5l-9.65 13.85" style="fill:#d21c22"/><path d="M68.43 51.75L52 56.5l14.66 4.56 18-3.85-16.23-5.46" style="fill:#c90901"/><path d="M51.64 71.78L68.52 79l-1.83-18L52 56.5l-.38 15.28" style="fill:#ec2101"/><path d="M16.26 51.75L0 57.19 18 61l14.67-4.55-16.41-4.71" style="fill:#b6171e"/><path d="M32.67 56.5L33 71.78l9.3 15.62v-17l-9.63-13.9" style="fill:#b4151b"/><path d="M18 61l-1.83 18L33 71.78l-.33-15.28L18 61" style="fill:#d21c22"/><path d="M58 38.44l.47-16.79-16.12 5.63v16.34L58 38.44" style="fill:#e63320"/><path d="M42.35 27.28l-16.12-5.63.47 16.79 15.65 5.17V27.28" style="fill:#ff4527"/><path d="M32.67 56.5l9.67 13.85L52 56.5l-9.65-12.88-9.68 12.88" style="fill:#ff9281"/><path d="M42.35 43.61L52 56.49l16.41-4.75L58 38.44l-15.65 5.17" style="fill:#fd684d"/><path d="M26.7 38.44L16.26 51.75l16.41 4.75 9.67-12.88-15.64-5.18" style="fill:#fd745c"/><path d="M588 29.64a4.46 4.46 0 0 1-1.19-.16 4.35 4.35 0 0 1-2.64-2 4.51 4.51 0 0 1-.44-1.06 4.63 4.63 0 0 1-.15-1.19 4.42 4.42 0 0 1 .16-1.19 4.33 4.33 0 0 1 1.13-2 4.33 4.33 0 0 1 .9-.68 4.5 4.5 0 0 1 4.49 0 4.25 4.25 0 0 1 .89.69 4.41 4.41 0 0 1 1.17 1.95 4.6 4.6 0 0 1 .15 1.18 4.55 4.55 0 0 1-.6 2.26 4.29 4.29 0 0 1-.69.9 4.41 4.41 0 0 1-.89.69 4.25 4.25 0 0 1-1.06.44 4.55 4.55 0 0 1-1.23.17zm0-.78a3.53 3.53 0 0 0 1-.13 3.7 3.7 0 0 0 .87-.37 3.51 3.51 0 0 0 .73-.57 3.83 3.83 0 0 0 .92-1.62 3.72 3.72 0 0 0-.15-2.39 3.63 3.63 0 0 0-1.92-1.94 3.65 3.65 0 0 0-2.83 0 3.65 3.65 0 0 0-1.15.78 3.73 3.73 0 0 0-.77 1.16 3.53 3.53 0 0 0-.28 1.42 3.63 3.63 0 0 0 .13 1 3.68 3.68 0 0 0 .36.87 3.72 3.72 0 0 0 .56.74 3.54 3.54 0 0 0 .73.57 3.67 3.67 0 0 0 .86.37 3.49 3.49 0 0 0 .94.11zm-1.64-1.41v-4.68H588a3.78 3.78 0 0 1 .75.07 1.42 1.42 0 0 1 .57.23 1.07 1.07 0 0 1 .36.43 1.55 1.55 0 0 1 .13.67 1.49 1.49 0 0 1-.24.89 1.29 1.29 0 0 1-.63.46l1.3 1.93h-1.14l-1.17-1.77h-.58v1.77zm.94-2.58h.7a2.17 2.17 0 0 0 .43 0 .61.61 0 0 0 .26-.11.39.39 0 0 0 .12-.2 1.31 1.31 0 0 0 0-.3 1 1 0 0 0 0-.29.43.43 0 0 0-.12-.2.6.6 0 0 0-.25-.11 1.78 1.78 0 0 0-.4 0h-.67z" style="fill:#ff943a"/></svg>